<svg width="25" height="32" viewBox="0 0 25 32" fill="none" xmlns="http://www.w3.org/2000/svg">
<path d="M24.6057 12.7734C25.0982 9.42825 22.5668 7.64534 19.0786 6.43437L20.2084 1.92766L17.4546 1.24098L16.3548 5.63647L14.1571 5.11219L15.271 0.68492L12.5172 0L11.3856 4.52259L9.63451 4.10952V4.09187L5.82684 3.13863L5.09426 6.08308C5.09426 6.08308 7.13313 6.56323 7.10136 6.57735C8.21524 6.86509 8.40765 7.59767 8.37588 8.17138L7.09959 13.3312L7.38733 13.4266L7.08547 13.363L5.28491 20.5776C5.15781 20.913 4.80829 21.4214 4.02804 21.2131C4.05982 21.2625 2.03683 20.7365 2.03683 20.7365L0.666992 23.8751L4.25047 24.7666L6.2099 25.2767L5.06249 29.8488L7.81629 30.5319L8.9337 26.0093L11.1456 26.5813L10.0158 31.0897L12.7696 31.7747L13.9011 27.2026C18.6003 28.0941 22.1361 27.7446 23.6189 23.4921C24.8122 20.0675 23.5536 18.108 21.0857 16.8017C22.8863 16.4045 24.2385 15.2095 24.5898 12.7734H24.6057ZM18.3143 21.5979C17.4687 25.0225 11.7034 23.1584 9.84104 22.7101L11.3539 16.6446C13.2162 17.1212 19.2057 18.0286 18.3143 21.5803V21.5979ZM19.1581 12.7257C18.3937 15.8326 13.5834 14.2545 12.0388 13.8732L13.4069 8.37792C14.9691 8.76098 19.9701 9.49356 19.1581 12.7257Z" fill="#FFCD29"/>
</svg>
