<svg width="25" height="25" viewBox="0 0 25 25" fill="none" xmlns="http://www.w3.org/2000/svg">
<path d="M0.881365 8.47525H5.86177V24.5H0.881365V8.47525ZM3.37294 0.5C3.94417 0.5 4.50257 0.669424 4.97749 0.986838C5.45241 1.30425 5.82252 1.75539 6.04099 2.28319C6.25946 2.81099 6.31649 3.39173 6.20485 3.95194C6.0932 4.51216 5.81791 5.02667 5.4138 5.4304C5.00969 5.83412 4.49492 6.10892 3.9346 6.22003C3.37428 6.33114 2.79359 6.27356 2.266 6.05459C1.73841 5.83561 1.28762 5.46507 0.970662 4.98985C0.653701 4.51462 0.484809 3.95607 0.485353 3.38484C0.486082 2.61948 0.790631 1.88572 1.33208 1.34478C1.87353 0.803849 2.60758 0.5 3.37294 0.5ZM8.98587 8.47525H13.76V10.6753H13.826C14.4915 9.41578 16.1141 8.08749 18.5369 8.08749C23.5806 8.07649 24.5156 11.3958 24.5156 15.6997V24.5H19.5352V16.7035C19.5352 14.8472 19.5022 12.4574 16.9474 12.4574C14.3925 12.4574 13.958 14.4814 13.958 16.5825V24.5H8.98587V8.47525Z" fill="#FFCD29"/>
</svg>
