<svg width="25" height="20" viewBox="0 0 25 20" fill="none" xmlns="http://www.w3.org/2000/svg">
<path d="M0.333008 19.6364V17.4545H24.333V19.6364H0.333008ZM3.60574 16.3636C3.00574 16.3636 2.49228 16.1502 2.06537 15.7233C1.63846 15.2964 1.42464 14.7825 1.42392 14.1818V2.18182C1.42392 1.58182 1.63774 1.06836 2.06537 0.641455C2.49301 0.214546 3.00646 0.000727273 3.60574 0H21.0603C21.6603 0 22.1741 0.213818 22.6017 0.641455C23.0294 1.06909 23.2428 1.58255 23.2421 2.18182V14.1818C23.2421 14.7818 23.0286 15.2956 22.6017 15.7233C22.1748 16.1509 21.661 16.3644 21.0603 16.3636H3.60574ZM3.60574 14.1818H21.0603V2.18182H3.60574V14.1818Z" fill="#FFCD29"/>
</svg>
