<svg width="24" height="28" viewBox="0 0 24 28" fill="none" xmlns="http://www.w3.org/2000/svg">
<g clip-path="url(#clip0_943_45)">
<path d="M8.69995 15.7C8.88211 15.5114 8.9829 15.2588 8.98062 14.9966C8.97835 14.7344 8.87318 14.4836 8.68777 14.2982C8.50236 14.1128 8.25155 14.0076 7.98935 14.0053C7.72715 14.003 7.47455 14.1038 7.28595 14.286L4.28595 17.286C4.09848 17.4735 3.99316 17.7278 3.99316 17.993C3.99316 18.2581 4.09848 18.5125 4.28595 18.7L7.28595 21.7C7.47455 21.8821 7.72715 21.9829 7.98935 21.9807C8.25155 21.9784 8.50236 21.8732 8.68777 21.6878C8.87318 21.5024 8.97835 21.2516 8.98062 20.9894C8.9829 20.7272 8.88211 20.4746 8.69995 20.286L6.39995 17.986L8.69995 15.686V15.7ZM13.2 12.02C13.4598 12.0721 13.6883 12.2252 13.8353 12.4457C13.9823 12.6662 14.0358 12.9361 13.9839 13.196L11.984 23.196C11.9244 23.4483 11.7692 23.6676 11.551 23.8077C11.3328 23.9478 11.0688 23.9977 10.8146 23.9468C10.5604 23.896 10.3358 23.7484 10.1883 23.5352C10.0408 23.322 9.98188 23.0598 10.024 22.804L12.024 12.804C12.0761 12.5441 12.2292 12.3156 12.4497 12.1686C12.6702 12.0216 12.9401 11.9682 13.2 12.02ZM19.7999 17.3L16.7999 14.3C16.6113 14.1178 16.3587 14.017 16.0965 14.0193C15.8344 14.0216 15.5835 14.1268 15.3981 14.3122C15.2127 14.4976 15.1076 14.7484 15.1053 15.0106C15.103 15.2728 15.2038 15.5254 15.386 15.714L17.686 18.014L15.386 20.314C15.2038 20.5026 15.103 20.7552 15.1053 21.0174C15.1076 21.2796 15.2127 21.5304 15.3981 21.7158C15.5835 21.9012 15.8344 22.0064 16.0965 22.0087C16.3587 22.0109 16.6113 21.9101 16.7999 21.728L19.7999 18.728C19.9874 18.5405 20.0927 18.2861 20.0927 18.021C20.0927 17.7558 19.9874 17.5015 19.7999 17.314V17.3Z" fill="#FFCD29"/>
<path fill-rule="evenodd" clip-rule="evenodd" d="M0 4C0 1.8 1.79 0 4 0H15C15.266 0 15.52 0.106 15.708 0.292L23.708 8.292C23.8008 8.38504 23.8744 8.49546 23.9245 8.61694C23.9746 8.73842 24.0002 8.86859 24 9V24C24 26.2 22.21 28 20 28H4C1.8 28 0 26.21 0 24V4ZM4 2C3.46957 2 2.96086 2.21071 2.58579 2.58579C2.21071 2.96086 2 3.46957 2 4V24C2 24.5304 2.21071 25.0391 2.58579 25.4142C2.96086 25.7893 3.46957 26 4 26H20C20.5304 26 21.0391 25.7893 21.4142 25.4142C21.7893 25.0391 22 24.5304 22 24V10H15C14.7348 10 14.4804 9.89464 14.2929 9.70711C14.1054 9.51957 14 9.26522 14 9V2H4ZM16 3.414L20.58 7.994H16V3.414Z" fill="#FFCD29"/>
</g>
<defs>
<clipPath id="clip0_943_45">
<rect width="24" height="28" fill="white"/>
</clipPath>
</defs>
</svg>
